<?xml version="1.0" encoding="utf-8"?>
<svg viewBox="0 0 264 280" width="264" height="280" style="enable-background:new 0 0 264 280;" xmlns="http://www.w3.org/2000/svg">
  <defs>
    <style type="text/css">
	.st0{fill-rule:evenodd;clip-rule:evenodd;fill:#E6E6E6;}
	.st1{filter:url(#Adobe_OpacityMaskFilter);}
	.st2{fill-rule:evenodd;clip-rule:evenodd;fill:#FFFFFF;}
	.st3{mask:url(#mask-2_1_);}
	.st4{fill-rule:evenodd;clip-rule:evenodd;fill:#2C3E50;}
	.st5{filter:url(#Adobe_OpacityMaskFilter_1_);}
	.st6{mask:url(#mask-4_1_);}
	.st7{fill-rule:evenodd;clip-rule:evenodd;fill:#D0C6AC;}
	.st8{filter:url(#Adobe_OpacityMaskFilter_2_);}
	.st9{mask:url(#mask-6_1_);}
	.st10{fill-rule:evenodd;clip-rule:evenodd;fill:#f9c3af;}
	.st11{filter:url(#Adobe_OpacityMaskFilter_3_);}
	.st12{mask:url(#mask-6_2_);fill-rule:evenodd;clip-rule:evenodd;fill-opacity:0.1;}
	.st13{filter:url(#Adobe_OpacityMaskFilter_4_);}
	.st14{mask:url(#react-mask-952_1_);}
	.st15{filter:url(#Adobe_OpacityMaskFilter_5_);}
	.st16{opacity:0.6;mask:url(#react-mask-952_2_);}
	.st17{fill-rule:evenodd;clip-rule:evenodd;fill-opacity:0.16;}
	.st18{fill-rule:evenodd;clip-rule:evenodd;fill-opacity:0.7;}
	.st19{filter:url(#Adobe_OpacityMaskFilter_6_);}
	.st20{mask:url(#react-mask-934_1_);fill-rule:evenodd;clip-rule:evenodd;fill:#FFFFFF;}
	.st21{filter:url(#Adobe_OpacityMaskFilter_7_);}
	.st22{mask:url(#react-mask-934_2_);}
	.st23{fill-rule:evenodd;clip-rule:evenodd;fill:#FF4F6D;}
	.st24{fill-rule:evenodd;clip-rule:evenodd;fill-opacity:0.6;}
	.st25{filter:url(#Adobe_OpacityMaskFilter_8_);}
	.st26{mask:url(#react-mask-925_1_);}
	.st27{fill-rule:evenodd;clip-rule:evenodd;fill:#28354B;}
	.st28{filter:url(#Adobe_OpacityMaskFilter_9_);}
	.st29{mask:url(#react-mask-924_1_);}
	.st30{fill-rule:evenodd;clip-rule:evenodd;fill:#4A312C;}
</style>
  </defs>
  <g>
    <g transform="translate(-825.000000, -1100.000000)">
      <g transform="translate(825.000000, 1100.000000)">
        <g id="Circle" transform="translate(12.000000, 40.000000)">
          <g id="Circle-Background">
            <circle class="st0" cx="120" cy="120" r="120"/>
          </g>
          <defs>
            <filter id="Adobe_OpacityMaskFilter" filterUnits="userSpaceOnUse" x="0" y="0" width="240" height="240">
              <feColorMatrix type="matrix" values="1 0 0 0 0  0 1 0 0 0  0 0 1 0 0  0 0 0 1 0"/>
            </filter>
          </defs>
          <mask maskUnits="userSpaceOnUse" x="0" y="0" width="240" height="240" id="mask-2_1_">
            <g class="st1">
              <circle id="path-1_1_" class="st2" cx="120" cy="120" r="120"/>
            </g>
          </mask>
          <g class="st3">
            <rect class="st4" width="240" height="240"/>
          </g>
        </g>
        <g id="Mask"/>
        <defs>
          <filter id="Adobe_OpacityMaskFilter_1_" filterUnits="userSpaceOnUse" x="-1" y="0" width="265" height="280">
            <feColorMatrix type="matrix" values="1 0 0 0 0  0 1 0 0 0  0 0 1 0 0  0 0 0 1 0"/>
          </filter>
        </defs>
        <mask maskUnits="userSpaceOnUse" x="-1" y="0" width="265" height="280" id="mask-4_1_">
          <g class="st5">
            <path id="path-3_1_" class="st2" d="M12,160c0,66.3,53.7,120,120,120s120-53.7,120-120h12V0H0v160H12z"/>
          </g>
        </mask>
        <g id="Avataaar" class="st6">
          <path d="M 200.69 77.377 C 200.69 120.116 175.897 157.616 132.426 157.616 C 88.955 157.616 65.289 122.642 65.289 79.902 C 65.289 37.163 88.536 13.309 132.007 13.309 C 175.478 13.309 200.69 34.638 200.69 77.377 Z" style="fill: rgb(99, 74, 53);"/>
          <g id="Body" transform="translate(32.000000, 36.000000)">
            <g>
              <path class="st7" d="M124,144.6V163h4l0,0c39.8,0,72,32.2,72,72v9H0v-9c0-39.8,32.2-72,72-72l0,0h4v-18.4 c-17.2-8.2-29.6-24.9-31.7-44.7C38.5,99.1,34,94.1,34,88V74c0-5.9,4.3-10.9,10-11.8V56l0,0c0-30.9,25.1-56,56-56l0,0l0,0 c30.9,0,56,25.1,56,56v6.2c5.7,1,10,5.9,10,11.8v14c0,6.1-4.5,11.1-10.3,11.9C153.6,119.7,141.2,136.4,124,144.6z"/>
            </g>
            <defs>
              <filter id="Adobe_OpacityMaskFilter_2_" filterUnits="userSpaceOnUse" x="-32" y="0" width="264" height="244">
                <feColorMatrix type="matrix" values="1 0 0 0 0  0 1 0 0 0  0 0 1 0 0  0 0 0 1 0"/>
              </filter>
            </defs>
            <mask maskUnits="userSpaceOnUse" x="-32" y="0" width="264" height="244" id="mask-6_1_">
              <g class="st8">
                <path id="path-5_1_" class="st2" d="M124,144.6V163h4l0,0c39.8,0,72,32.2,72,72v9H0v-9c0-39.8,32.2-72,72-72l0,0h4v-18.4 c-17.2-8.2-29.6-24.9-31.7-44.7C38.5,99.1,34,94.1,34,88V74c0-5.9,4.3-10.9,10-11.8V56l0,0c0-30.9,25.1-56,56-56l0,0l0,0 c30.9,0,56,25.1,56,56v6.2c5.7,1,10,5.9,10,11.8v14c0,6.1-4.5,11.1-10.3,11.9C153.6,119.7,141.2,136.4,124,144.6z"/>
              </g>
            </mask>
            <g class="st9">
              <g id="Color" transform="translate(-32.000000, 0.000000)">
                <rect class="st10" width="264" height="244"/>
              </g>
            </g>
            <defs>
              <filter id="Adobe_OpacityMaskFilter_3_" filterUnits="userSpaceOnUse" x="44" y="79" width="112" height="79">
                <feColorMatrix type="matrix" values="1 0 0 0 0  0 1 0 0 0  0 0 1 0 0  0 0 0 1 0"/>
              </filter>
            </defs>
            <mask maskUnits="userSpaceOnUse" x="44" y="79" width="112" height="79" id="mask-6_2_">
              <g class="st11">
                <path id="path-5_2_" class="st2" d="M124,144.6V163h4l0,0c39.8,0,72,32.2,72,72v9H0v-9c0-39.8,32.2-72,72-72l0,0h4v-18.4 c-17.2-8.2-29.6-24.9-31.7-44.7C38.5,99.1,34,94.1,34,88V74c0-5.9,4.3-10.9,10-11.8V56l0,0c0-30.9,25.1-56,56-56l0,0l0,0 c30.9,0,56,25.1,56,56v6.2c5.7,1,10,5.9,10,11.8v14c0,6.1-4.5,11.1-10.3,11.9C153.6,119.7,141.2,136.4,124,144.6z"/>
              </g>
            </mask>
            <path id="Neck-Shadow" class="st12" d="M156,79v23c0,30.9-25.1,56-56,56s-56-25.1-56-56V79v15c0,30.9,25.1,56,56,56 s56-25.1,56-56V79z"/>
          </g>
          <g transform="translate(0.000000, 170.000000)">
            <g id="Clothes">
              <path class="st0" d="M166,29.3c37,3,66,34,66,71.8v8.9H32v-8.9C32,63,61.6,31.8,99,29.2c0,0.4,0,0.7,0,1.1 c0,11.9,15,21.5,33.5,21.5S166,42.2,166,30.3C166,30,166,29.6,166,29.3z"/>
            </g>
            <defs>
              <filter id="Adobe_OpacityMaskFilter_4_" filterUnits="userSpaceOnUse" x="0" y="0" width="264" height="110">
                <feColorMatrix type="matrix" values="1 0 0 0 0  0 1 0 0 0  0 0 1 0 0  0 0 0 1 0"/>
              </filter>
            </defs>
            <mask maskUnits="userSpaceOnUse" x="0" y="0" width="264" height="110" id="react-mask-952_1_">
              <g class="st13">
                <path id="react-path-951_1_" class="st2" d="M 166 30.3 C 203 33.3 232 64.3 232 102.1 L 232 111 L 32 111 L 32 102.1 C 32 64 61.6 32.8 99 30.2 C 99 30.6 99 30.9 99 31.3 C 99 43.2 114 52.8 132.5 52.8 C 151 52.8 166 43.2 166 31.3 C 166 31 166 30.6 166 30.3 Z"/>
              </g>
            </mask>
            <g class="st14">
              <rect class="st2" width="264" height="110" style=""/>
            </g>
            <defs>
              <filter id="Adobe_OpacityMaskFilter_5_" filterUnits="userSpaceOnUse" x="92.9" y="4.9" width="79.3" height="53.8">
                <feColorMatrix type="matrix" values="1 0 0 0 0  0 1 0 0 0  0 0 1 0 0  0 0 0 1 0"/>
              </filter>
            </defs>
            <mask maskUnits="userSpaceOnUse" x="92.9" y="4.9" width="79.3" height="53.8" id="react-mask-952_2_">
              <g class="st15">
                <path id="react-path-951_2_" class="st2" d="M166,29.3c37,3,66,34,66,71.8v8.9H32v-8.9C32,63,61.6,31.8,99,29.2 c0,0.4,0,0.7,0,1.1c0,11.9,15,21.5,33.5,21.5S166,42.2,166,30.3C166,30,166,29.6,166,29.3z"/>
              </g>
            </mask>
            <g id="Shadowy" class="st16">
              <g transform="translate(92.000000, 4.000000)">
                <ellipse class="st17" cx="40.5" cy="27.8" rx="39.6" ry="26.9"/>
              </g>
            </g>
          </g>
          <g id="Face" transform="translate(76.000000, 82.000000)">
            <g transform="translate(2.000000, 52.000000)">
              <g id="Mouth">
                <path class="st18" d="M35.1,15.1C36.2,24.6,44.2,32,54,32c9.8,0,17.9-7.4,18.9-17c0.1-0.8-0.8-2-1.8-2c-14.9,0-26.3,0-34,0 C36,13,35,14.2,35.1,15.1z"/>
              </g>
              <defs>
                <filter id="Adobe_OpacityMaskFilter_6_" filterUnits="userSpaceOnUse" x="39" y="2" width="31" height="16">
                  <feColorMatrix type="matrix" values="1 0 0 0 0  0 1 0 0 0  0 0 1 0 0  0 0 0 1 0"/>
                </filter>
              </defs>
              <mask maskUnits="userSpaceOnUse" x="39" y="2" width="31" height="16" id="react-mask-934_1_">
                <g class="st19">
                  <path id="react-path-933_1_" class="st2" d="M35.1,15.1C36.2,24.6,44.2,32,54,32c9.8,0,17.9-7.4,18.9-17 c0.1-0.8-0.8-2-1.8-2c-14.9,0-26.3,0-34,0C36,13,35,14.2,35.1,15.1z"/>
                </g>
              </mask>
              <path id="Teeth" class="st20" d="M44,2h21c2.8,0,5,2.2,5,5v6c0,2.8-2.2,5-5,5H44c-2.8,0-5-2.2-5-5V7C39,4.2,41.2,2,44,2z"/>
              <defs>
                <filter id="Adobe_OpacityMaskFilter_7_" filterUnits="userSpaceOnUse" x="38" y="24" width="32" height="22">
                  <feColorMatrix type="matrix" values="1 0 0 0 0  0 1 0 0 0  0 0 1 0 0  0 0 0 1 0"/>
                </filter>
              </defs>
              <mask maskUnits="userSpaceOnUse" x="38" y="24" width="32" height="22" id="react-mask-934_2_">
                <g class="st21">
                  <path id="react-path-933_2_" class="st2" d="M35.1,15.1C36.2,24.6,44.2,32,54,32c9.8,0,17.9-7.4,18.9-17 c0.1-0.8-0.8-2-1.8-2c-14.9,0-26.3,0-34,0C36,13,35,14.2,35.1,15.1z"/>
                </g>
              </mask>
              <g id="Tongue" class="st22">
                <g transform="translate(38.000000, 24.000000)">
                  <circle class="st23" cx="11" cy="11" r="11"/>
                  <circle class="st23" cx="21" cy="11" r="11"/>
                </g>
              </g>
            </g>
            <g transform="translate(28.000000, 40.000000)">
              <path id="Nose" class="st17" d="M16,8c0,4.4,5.4,8,12,8l0,0c6.6,0,12-3.6,12-8"/>
            </g>
            <g transform="translate(0.000000, 8.000000)">
              <path id="Squint" class="st24" d="M16.2,22.4C18,18.6,22.2,16,27,16c4.8,0,9,2.6,10.8,6.4c0.6,1.1-0.2,2-1,1.4 c-2.5-2.1-5.9-3.4-9.8-3.4c-3.7,0-7.1,1.2-9.6,3.2C16.5,24.3,15.6,23.6,16.2,22.4z"/>
              <path class="st24" d="M74.2,22.4C76,18.6,80.2,16,85,16c4.8,0,9,2.6,10.8,6.4c0.6,1.1-0.2,2-1,1.4c-2.5-2.1-5.9-3.4-9.8-3.4 c-3.7,0-7.1,1.2-9.6,3.2C74.5,24.3,73.6,23.6,74.2,22.4z"/>
            </g>
            <g>
              <path id="Eyebrow" class="st24" d="M26.5,6.1c-5.8,0.3-15.2,4.5-15,10.3c0,0.2,0.3,0.3,0.4,0.1c2.8-3,22.3-5.9,29.2-4.4 c0.6,0.1,1.1-0.5,0.7-0.9C38.5,7.5,31.7,5.9,26.5,6.1"/>
              <path class="st24" d="M86.5,6.1c5.8,0.3,15.2,4.5,15,10.3c0,0.2-0.3,0.3-0.4,0.1c-2.8-3-22.3-5.9-29.2-4.4 c-0.6,0.1-1.1-0.5-0.7-0.9C74.5,7.5,81.3,5.9,86.5,6.1"/>
            </g>
          </g>
        </g>
      </g>
    </g>
  </g>
  <path d="M 127.154 18.711 C 143.052 18.711 140.108 13.535 138.74 25.607 C 136.985 41.087 130.871 60.827 125.595 60.92 C 121.863 60.986 119.354 66.153 113.424 69.794 C 105.241 74.818 112.058 64.63 106.52 65.299 C 103.617 65.65 101.313 70.176 94.642 74.145 C 87.048 78.663 94.2 67.415 88.448 69.431 C 86.478 70.121 85.153 69.98 82.838 73.864 C 81.173 76.657 80.526 85.875 80.602 87.147 C 80.676 88.388 81.032 116.528 80.371 117.255 C 74.872 123.308 82.481 109.679 74.9 102.704 C 63.04 91.791 65.915 122.839 64.957 118.972 C 62.71 109.903 90.872 18.711 127.154 18.711 Z" style="fill: rgb(97, 74, 54);"/>
  <path d="M 202.516 103.512 C 218.414 103.512 209.725 64.204 209.725 64.204 C 209.725 64.204 205.326 68.998 203.116 66.902 C 201.505 65.374 206.469 55.755 197.568 60.648 C 190.867 64.331 188.991 68.986 185.86 68.429 C 182.741 67.874 188.731 56.116 181.977 59.591 C 176.926 62.19 172.55 67.077 169.605 66.27 C 167.382 65.661 171.986 54.913 165.509 59.042 C 159.351 62.967 158.152 64.671 155.788 64.065 C 153.283 63.423 158.587 55.345 153.806 56.938 C 150.839 57.926 149.408 59.727 147.807 60.188 C 146.372 60.601 146.765 55.103 146.745 54.211 C 146.707 52.5 147.926 12.994 146.873 11.835 C 141.374 5.782 148.983 19.411 141.402 26.386 C 129.542 37.299 131.786 2.486 130.828 6.353 C 128.581 15.422 131.034 41.057 132.74 53.404 C 135.597 74.079 158.722 110.148 195.004 110.148" style="fill: rgb(97, 74, 54);" transform="matrix(-1, 0, 0, -1, 328.985565, 129.009521)"/>
</svg>
