<svg xmlns="http://www.w3.org/2000/svg" width="100%" height="100%" viewBox="86.2 0 349.97 404.11">
  <defs>
    <style>
      .cls-1 {
        fill: #2bb673;
      }

      .cls-2, .cls-9 {
        fill: #231f20;
      }

      .cls-11, .cls-2, .cls-3, .cls-4 {
        stroke: #231f20;
      }

      .cls-2, .cls-3, .cls-9 {
        stroke-miterlimit: 10;
      }

      .cls-3, .cls-4, .cls-6 {
        fill: none;
      }

      .cls-10, .cls-11, .cls-3, .cls-4, .cls-5, .cls-6, .cls-7, .cls-8 {
        stroke-width: 2px;
      }

      .cls-10, .cls-11, .cls-4, .cls-5, .cls-6, .cls-7, .cls-8 {
        stroke-linecap: round;
        stroke-linejoin: round;
      }

      .cls-5 {
        fill: #fffcd7;
      }

      .cls-10, .cls-5, .cls-6, .cls-7, .cls-8, .cls-9 {
        stroke: #000;
      }

      .cls-11, .cls-7 {
        fill: #fff29f;
      }

      .cls-8 {
        fill: #ffec5f;
      }

      .cls-10 {
        fill: #b84026;
      }
    </style>
  </defs>
  <title>BC</title>
  <g id="hex">
    <polygon class="cls-1" points="261.19 0 436.17 101.03 436.17 303.08 261.19 404.11 86.2 303.08 86.2 101.03 261.19 0"/>
    <text x="80.19"></text>
  </g>
  <g id="dude">
    <path class="cls-2" d="M226.75,195.38" transform="translate(80.19)"/>
    <path class="cls-3" d="M254.56,200.67a10.82,10.82,0,0,0-.27-2.39,9.34,9.34,0,0,0-.32-1.13,9.43,9.43,0,0,0-17.22-.94h0l0,.1a9.48,9.48,0,0,0-.54,1.32L226.6,222l20.75,10.14a73.86,73.86,0,0,0,7.2-30.75C254.56,201.17,254.56,200.93,254.56,200.67Z" transform="translate(80.19)"/>
    <line class="cls-4" x1="319.92" y1="200.92" x2="320.83" y2="197.76"/>
    <line class="cls-4" x1="329.22" y1="203.23" x2="329.97" y2="200.73"/>
    <path class="cls-4" d="M242.34,203.53a1.37,1.37,0,0,0,1.13,1.41,1.26,1.26,0,0,0,1.63-.7" transform="translate(80.19)"/>
  </g>
  <g id="B">
    <polygon class="cls-5" points="143.84 127.54 224.87 80.76 250.41 94.52 169.38 141.3 143.84 127.54"/>
    <path class="cls-6" d="M88.79,206.54" transform="translate(80.19)"/>
    <polyline class="cls-7" points="169.38 141.3 143.84 127.54 143.84 250.74 224.87 297.52 224.87 236.79 169.38 204.09"/>
    <polyline class="cls-8" points="224.87 236.79 224.87 297.52 250.05 283.35 250.05 222.03"/>
    <polyline class="cls-5" points="169.38 204.09 224.87 236.79 250.05 222.03 195.43 189.84"/>
    <path class="cls-6" d="M127.35,126.32" transform="translate(80.19)"/>
    <path class="cls-6" d="M127.35,185.45" transform="translate(80.19)"/>
    <path class="cls-6" d="M120.65,284" transform="translate(80.19)"/>
    <path class="cls-6" d="M120.52,221.78" transform="translate(80.19)"/>
    <line class="cls-6" x1="205.83" y1="269.71" x2="205.83" y2="245.04"/>
    <polyline class="cls-6" points="205.83 269.71 169.38 248.23 168.98 223.33 205.83 245.04"/>
    <path class="cls-6" d="M89.19,248.23" transform="translate(80.19)"/>
    <g>
      <path class="cls-9" d="M123.07,342.36a11.53,11.53,0,0,1-11.3-12c.18-5.51,4-10.65,9.54-11.55,3.56-.54,7.85.5,10.29,3.2.58.68-.29,1.44-.86.83-2.2-2.45-6-3.35-9.25-2.84-5,.79-8.39,5.47-8.57,10.4a10.47,10.47,0,0,0,10.19,10.76,9.92,9.92,0,0,0,8.24-4v-6h-7.67a.54.54,0,0,1,0-1.08h8.1c.5,0,.65.29.65.68v6.41a1.14,1.14,0,0,1-.25.83A11.38,11.38,0,0,1,123.07,342.36Z" transform="translate(80.19)"/>
      <path class="cls-9" d="M143.73,335.56l-3.2,6.37a.6.6,0,0,1-1-.58l11.45-22.57a.59.59,0,0,1,.54-.32.54.54,0,0,1,.5.32l11.48,22.57a.6.6,0,0,1-1,.58l-3.2-6.37Zm7.74-15.33-7.2,14.25h14.36Z" transform="translate(80.19)"/>
      <path class="cls-9" d="M192.08,319.36c.4-.61,1.19-.43,1.19.29v21.78a.61.61,0,1,1-1.22,0V321.59l-9.29,14.58a.69.69,0,0,1-1.26,0l-9.29-14.51v19.76a.61.61,0,1,1-1.22,0V319.65a.6.6,0,0,1,1.15-.29l10,15.59Z" transform="translate(80.19)"/>
      <path class="cls-9" d="M204.64,340.85h15.91a.58.58,0,0,1,0,1.15H204.43a1,1,0,0,1-1-1V320a.94.94,0,0,1,1-.94h16.16a.54.54,0,1,1,0,1.08H204.64v9.93h15.19a.54.54,0,1,1,0,1.08H204.64Z" transform="translate(80.19)"/>
      <path class="cls-9" d="M229,336.89c.86,3,4.93,4.1,7.63,4.36a13.32,13.32,0,0,0,1.69.11c3.56,0,9.07-1.22,9.07-5.69,0-8.28-19-.83-19-10.55,0-3.56,3.49-5.33,6.52-6a16.89,16.89,0,0,1,3-.29c3.46,0,8.42.79,9.79,4.54.36.86-.76,1.12-1,.4-1.22-3.38-5.69-3.85-8.75-3.85-.29,0-.58,0-.86,0-2.59.18-6.34,1.22-7.27,4a2.87,2.87,0,0,0-.25,1.22c0,8.24,19,1,19,10.47,0,5.29-5.9,6.73-10.26,6.73-3.67,0-9.25-1-10.4-5.18A.56.56,0,1,1,229,336.89Z" transform="translate(80.19)"/>
    </g>
    <path class="cls-6" d="M105,291.33" transform="translate(80.19)"/>
    <polyline class="cls-8" points="170.89 203.44 250.54 157.78 250.41 94.52 169.38 141.3 169.38 204.09"/>
    <polygon class="cls-6" points="193.29 146.02 226.57 126.8 226.63 152.78 193.29 171.81 193.29 146.02"/>
    <polygon class="cls-7" points="203.79 139.96 226.63 152.78 226.57 126.8 203.79 139.96"/>
    <polygon class="cls-5" points="169.38 248.23 189.77 235.58 205.83 245.04 205.83 269.71 169.38 248.23"/>
    <polygon class="cls-8" points="168.98 223.33 169.38 248.23 189.77 235.58 168.98 223.33"/>
    <polygon class="cls-5" points="203.79 139.96 193.29 146.02 193.29 171.81 226.63 152.78 203.79 139.96"/>
  </g>
  <g id="C">
    <path class="cls-6" d="M222.42,141.54" transform="translate(80.19)"/>
    <path class="cls-6" d="M222.42,270.55" transform="translate(80.19)"/>
    <polygon class="cls-5" points="373.78 127.86 348.11 141.62 266.96 94.84 291.6 80.44 373.78 127.86"/>
    <path class="cls-6" d="M212.57,145.18" transform="translate(80.19)"/>
    <polygon class="cls-5" points="373.78 221.24 350.55 207.83 316.78 227.64 316.78 254.62 373.78 221.24"/>
    <polyline class="cls-8" points="292.76 139.71 292.23 297.85 373.45 250.44 373.78 221.54 316.78 254.62 316.78 153.56"/>
    <path class="cls-10" d="M257.3,211.55" transform="translate(80.19)"/>
    <polyline class="cls-11" points="347.93 171.51 292.76 139.71 292.23 297.85 266.6 283.67 266.96 94.84 348.11 141.62"/>
    <polygon class="cls-8" points="348.11 171.51 373.65 156.76 373.78 127.86 348.11 141.62 348.11 171.51"/>
  </g>
</svg>
