<?xml version="1.0" encoding="utf-8"?>
<!-- Generator: Adobe Illustrator 17.1.0, SVG Export Plug-In . SVG Version: 6.00 Build 0)  -->
<!DOCTYPE svg PUBLIC "-//W3C//DTD SVG 1.1//EN" "http://www.w3.org/Graphics/SVG/1.1/DTD/svg11.dtd">
<svg version="1.1" id="Layer_1" xmlns="http://www.w3.org/2000/svg" xmlns:xlink="http://www.w3.org/1999/xlink" x="0px" y="0px"
	 viewBox="84.2 0 496.8 1008" enable-background="new 84.2 0 496.8 1008" xml:space="preserve">
<g>
	<path fill="none" d="M535.7,41.7c0.2,0.1,0.3,0.3,0.4,0.5C536,42,535.8,41.8,535.7,41.7z"/>
	<path fill="none" d="M525,36.7c3.5,0.3,6.6,1.7,9.2,3.7C531.6,38.4,528.5,37.1,525,36.7z"/>
	<path fill="none" d="M522.1,498.2c4.8,2.2,7.9,7.1,7.4,12.6l-38.3,420.7L529.8,511C530.2,505.4,527,500.4,522.1,498.2z"/>
	<polygon fill="none" points="529.4,455.9 529.8,456.6 512.9,410.4 493.4,166.1 512.8,410.4 	"/>
	<path fill="none" d="M512.3,504c4.6,0,8.3,3.8,7.8,8.4l-29,419.3l-0.4,6.1h0.1l0.4-6.2l29.1-419.2C520.6,507.9,516.9,504,512.3,504
		z"/>
	<path fill="none" d="M393.1,589c0-6.7-5.3-11.9-11.8-11.9h-3.9l0,0h3.9C387.8,577,393,582.4,393.1,589z"/>
	<path fill="none" d="M381.3,691.9h-3.9v0.1L381.3,691.9c6.1,0.1,11.1-4.7,11.7-10.7C392.4,687.2,387.4,691.9,381.3,691.9z"/>
	<path fill="none" d="M554.7,492.3l-9.6,161l0.3-2.9l9.4-158.1c0.1-2.7-0.2-5.3-1-7.9l-18.1-53.9l-0.8-1.8l18.7,55.6
		C554.5,487,554.8,489.7,554.7,492.3z"/>
	<path fill="none" d="M534.4,40.6c0.3,0.2,0.5,0.5,0.8,0.7C534.9,41,534.7,40.8,534.4,40.6z"/>
	<path fill="none" d="M563.5,126.9l5.2-32.8v-0.8L563.5,126.9c-0.8,3.5-2.5,6.8-5.3,9.2l-17.4,12.3l0.8-0.4l16.7-11.8
		C561.1,133.7,563,130.5,563.5,126.9z"/>
	<path fill="none" d="M540.8,52.1c0.1,0.6,0.1,1.2,0.1,1.8C540.9,53.3,540.8,52.7,540.8,52.1z"/>
	<path fill="none" d="M536.8,42.9c0.1,0.1,0.1,0.1,0.1,0.2C536.9,43.1,536.9,43,536.8,42.9z"/>
	<polygon fill="none" points="377.3,401.2 504.6,401.2 504.6,401.1 377.3,401.1 	"/>
	<path fill="none" d="M436.2,195.3c7.7,0,14.6,3,19.7,7.9c-5-5-12-8-19.8-8h-58.8v0.1H436.2z"/>
	<path fill="none" d="M523.1,113L523.1,113c9.8,0,17.7-7.7,17.7-17.3l0,0C540.9,105.3,532.9,113,523.1,113z"/>
	<path fill="none" d="M396.5,586.3v95.2c0,7.7-6.4,14-14.4,14.1h-4.7l0,0h4.7c7.9,0,14.4-6.3,14.4-14.1V586.3
		c0-7.8-6.4-14.1-14.4-14.1l0,0C390,572.2,396.5,578.5,396.5,586.3z"/>
	<path fill="#FFFFFF" d="M377.3,401.1v0.1V401.1z"/>
	<path d="M142.4,113h182.4h52.5h145.8c9.8,0,17.8-7.8,17.8-17.3V53.9c0-0.6,0-1.2-0.1-1.8c-0.4-3.4-1.7-6.5-3.8-9
		c-0.1-0.1-0.1-0.1-0.1-0.2c-0.2-0.3-0.5-0.5-0.7-0.8c-0.1-0.2-0.3-0.3-0.4-0.5c-0.2-0.2-0.3-0.3-0.5-0.4c-0.3-0.2-0.5-0.5-0.8-0.7
		c-0.1-0.1-0.1-0.1-0.2-0.2c-2.6-2-5.7-3.3-9.2-3.7c-0.6-0.1-1.2-0.1-1.8-0.1h-146h-52.5H142.4c-9.7,0-17.6,7.7-17.6,17.3v41.9
		C124.7,105.3,132.6,113,142.4,113z"/>
	<path d="M284.3,691.9h40.5h52.5h0.1h3.9c6.1,0,11.1-4.7,11.7-10.7c0-0.4,0.1-0.8,0.1-1.2v-90.9V589c0-6.6-5.3-11.9-11.8-11.9h-3.9
		h-0.1l0,0h-52.5V577h-40.5c-6.5,0-11.8,5.4-11.8,12v90.9C272.5,686.5,277.7,691.9,284.3,691.9z"/>
	<path fill="#020202" d="M579.3,130.9V14.3c0-6.4-7.7-9.9-12.7-5.8l-12.5,10.4H377.3h-52.5H111.5L99,8.5c-5-4.2-12.7-0.7-12.7,5.8
		v116.8c0,7.6,4.6,14.3,11.8,17.2l43.5,17.6l-10.9,237.4l-42,73.8c-1.5,2.7-2.3,5.6-2.3,8.6l56.4,484.7h234.5v-0.1h145.5l56.5-484.8
		c0-3-0.8-6-2.3-8.6l-42-73.8l-11-237.4l43.5-17.6C574.6,145.3,579.3,138.5,579.3,130.9z M120.5,653.4l-15.7-161.3
		c-0.4-3.6,0.2-7.4,1.7-10.7l24.1-52.5L112,484.5c-0.9,2.6-1.2,5.2-1.1,7.9L120.5,653.4z M106.3,33.7c0-4.5,3.7-8.1,8.3-8.1h210.2
		h52.5h173.6c4.6,0,8.3,3.6,8.3,8.1v82.4c0,4.5-3.7,8.1-8.3,8.1H324.8v-0.1H114.6c-4.6,0-8.3-3.6-8.3-8.1
		C106.3,116,106.3,33.7,106.3,33.7z M104.5,138.4c-4.8-2.8-7.7-7.8-7.7-13.2V93.4l5.4,33.3c0.7,3.6,2.4,6.9,5.2,9.3l17.4,12.4
		L104.5,138.4z M535.7,430.6l-0.6-1.8l24.1,52.5c1.5,3.3,2.1,7,1.7,10.7l-15.7,161.3l0.2-2.9l-0.3,2.9l9.6-161
		c0.1-2.7-0.2-5.3-1.1-7.9l-18.7-55.6L535.7,430.6z M529.8,511l-38.6,420.6l-0.4,6.2h-0.1v0.1H324.8l0,0h-150l-0.4-6.3l-38.3-420.7
		c-0.7-7.5,5.3-13.9,13-13.9h175.7h52.6h139.2c2,0,3.9,0.4,5.5,1.2C527,500.4,530.2,505.4,529.8,511z M512.9,410.4l16.9,46.2
		l-0.4-0.8l0.3,0.8l-22.2-43.5H377.3h-52.5H158.1L136,456.6l16.9-46.2l19.4-244.3l-54.6-36.4l59.2,30.9l147.9-0.1v0.1h163.9
		l59.2-30.9l-54.6,36.4L512.9,410.4z M561.2,138.5l-20.4,10l0.7-0.5l-0.8,0.4l17.4-12.4c2.8-2.3,4.6-5.6,5.2-9.3l5.3-33.5V94
		l0.1-0.7h0.1v31.9C569,130.7,566,135.7,561.2,138.5z"/>
	<path d="M376.9,174.8h-52.1H179.2L161,401.2h163.8h52.5v-0.1l0,0h127.3l0,0l-18.2-226.3H376.9L376.9,174.8z M464.1,350.1
		c0,15.1-12.5,27.4-28,27.5H324.8v-0.1h-95.3c-15.5,0-27.9-12.3-27.9-27.3V222.6c0-15.1,12.5-27.3,27.9-27.3h95.3h52.1v-0.1h0.4
		h58.8c7.7,0,14.7,3.1,19.8,8c5.1,4.9,8.2,11.8,8.2,19.3L464.1,350.1L464.1,350.1z"/>
	<path d="M520.2,512.5c0.4-4.6-3.3-8.4-7.8-8.4H324.8v0.1H153.3c-4.6,0-8.3,3.8-7.9,8.3l29.1,419.1l0.4,6.3h150l0,0h165.9v-0.1
		l0.4-6.1L520.2,512.5z M269.1,586.2c0-7.8,6.4-14.1,14.4-14.1h41.3v0.1h57.3l0,0c7.9,0,14.4,6.3,14.4,14.1v95.2
		c0,7.8-6.4,14.1-14.4,14.1h-4.7h-0.1l0,0h-52.5v-0.1h-41.3c-7.9,0-14.4-6.3-14.4-14.1L269.1,586.2L269.1,586.2z"/>
</g>
</svg>
