<?xml version="1.0" encoding="utf-8"?>
<!-- Generator: Adobe Illustrator 17.1.0, SVG Export Plug-In . SVG Version: 6.00 Build 0)  -->
<!DOCTYPE svg PUBLIC "-//W3C//DTD SVG 1.1//EN" "http://www.w3.org/Graphics/SVG/1.1/DTD/svg11.dtd">
<svg version="1.1" xmlns="http://www.w3.org/2000/svg" xmlns:xlink="http://www.w3.org/1999/xlink" x="0px" y="0px"
	 viewBox="0 0 648 360" enable-background="new 0 0 648 360" xml:space="preserve">
<g id="Layer_1">
</g>
<g id="Layer_3">
</g>
<g id="Layer_4">
	<g>
		<g>
			<polygon points="53.8,149.9 92.4,149.9 92.4,155.1 98.2,155.1 98.2,160.3 103.1,160.3 103.1,194.6 98.3,194.6 98.3,199.2 
				58.8,199.2 58.8,194.5 53.8,194.4 			"/>
			<path fill="#FFFFFF" d="M93.3,170.2v-10h-5.1v-5.2H59.1v34.2h29.1v-5h5.1V175h-5.1v-4.8H93.3z M83.1,184H69.3v-8.7h13.9V184z
				 M83.1,170.2H69.3v-10.1h13.9V170.2z"/>
		</g>
		<g>
			<polygon points="108.7,150 153,150 153,154.6 158.1,154.6 158.1,169.9 153,169.9 153,183.9 158.1,183.9 158.1,199.1 113.8,199.1 
				113.8,194.4 108.7,194.4 			"/>
			<polygon fill="#FFFFFF" points="113.7,154.8 147.9,154.8 147.9,160.5 123.8,160.5 123.8,169.8 142.8,169.8 142.8,175.2 
				123.8,175.2 123.8,183.7 147.9,183.7 147.9,189.4 113.7,189.4 			"/>
		</g>
		<g>
			<polygon points="164.3,150.2 184.4,150.2 184.4,154.7 189.8,154.7 189.8,150.2 208.5,150.2 208.5,154.7 213.4,154.7 213.4,199.2 
				193.4,199.2 193.4,194.3 189.5,194.3 189.5,199.2 169.1,199.2 169.1,194.6 164.3,194.6 			"/>
			<polyline fill="#FFFFFF" points="193.4,180.3 189.5,180.3 189.5,175.4 184.5,175.4 184.5,170.5 179.3,170.5 179.3,189.2 
				169.2,189.2 169.2,154.9 179.3,154.9 179.3,160 184.4,160 184.4,165.1 189.5,165.1 189.5,170.2 193.4,170.2 193.4,154.9 
				203.4,154.9 203.4,189.2 193.4,189.2 			"/>
		</g>
		<g>
			<polygon points="250.3,149.9 284.4,149.9 284.4,154.9 289.6,154.9 289.6,160.2 294.5,160.2 294.5,175.2 289.5,175.2 289.5,180.4 
				294.5,180.4 294.5,194.1 289.5,194.1 289.5,199.2 255.4,199.2 255.4,194.3 250.3,194.3 250.3,189.1 245.3,189.1 245.3,154.9 
				250.3,154.9 			"/>
			<polygon fill="#FFFFFF" points="255.5,154.9 279.5,154.9 279.5,160.1 284.4,160.1 284.4,165.1 274.4,165.1 274.4,160 260.5,160 
				260.5,184.1 274.3,184.1 274.3,180.4 284.4,180.4 284.4,184.1 279.5,184.1 279.5,189.1 255.5,189.1 255.5,184 250.2,184 
				250.2,160.2 255.5,160.2 			"/>
		</g>
		<g>
			<polygon points="305,150.2 339,150.2 339,154.9 344.3,154.9 344.3,160.6 349,160.6 349,194.1 344,194.1 344,199.2 310.1,199.2 
				310.1,194.1 305,194.1 305,189.2 299.8,189.2 299.8,154.9 305,154.9 			"/>
			<path fill="#FFFFFF" d="M333.9,160v-5.1h-23.8v5.1H305v24.6h5.2v4.6H334v-4.9h5.2V160H333.9z M329,184.2h-13.7V160H329V184.2z"/>
		</g>
		<g>
			<polygon points="482.5,155.2 482.5,149.9 462.2,149.9 462.2,194.5 467.1,194.5 467.1,199.5 487.2,199.5 487.2,155.2 			"/>
			<rect x="466.8" y="154.8" fill="#FFFFFF" width="10.6" height="34.5"/>
		</g>
		<g>
			<polygon points="544.9,150 565.1,150 565.1,155.4 569.7,155.4 569.7,150 589,150 589,155.1 594.2,155.1 594.2,170.3 589.2,170.3 
				589.2,175.3 584.1,175.3 584.1,180.3 589.2,180.3 589.2,184.3 594.2,184.3 594.2,199.3 574,199.3 574,194.4 570.1,194.4 
				570.1,199.3 550.1,199.3 550.1,194.5 544.9,194.5 			"/>
			<polygon fill="#FFFFFF" points="550.1,155.1 560.1,155.1 560.1,170.4 565.2,170.4 565.2,165.4 570.2,165.4 570.2,160.3 
				574,160.3 574,155.1 584.1,155.1 584.1,160.3 579.1,160.3 579.1,165.4 574,165.4 574,170.4 570.3,170.4 570.3,175.2 574,175.2 
				574,180.5 579.1,180.5 579.1,184.1 584.1,184.1 584.1,189.3 574,189.3 574,184.3 570.3,184.3 570.3,180.3 565.2,180.3 
				565.2,175.1 560.2,175.1 560.2,189.3 550.1,189.3 			"/>
		</g>
		<g>
			<polygon points="354.2,150 374.3,150 374.3,154.6 379.7,154.6 379.7,150 398.5,150 398.5,154.6 403.4,154.6 403.4,199.1 
				383.4,199.1 383.4,194.2 379.5,194.2 379.5,199.1 359.1,199.1 359.1,194.5 354.2,194.5 			"/>
			<polyline fill="#FFFFFF" points="383.4,180.2 379.5,180.2 379.5,175.2 374.4,175.2 374.4,170.4 369.3,170.4 369.3,189.1 
				359.2,189.1 359.2,154.8 369.3,154.8 369.3,159.9 374.3,159.9 374.3,165 379.5,165 379.5,170 383.4,170 383.4,154.8 393.4,154.8 
				393.4,189.1 383.4,189.1 			"/>
		</g>
		<g>
			<polygon points="407.5,150 427.6,150 427.6,154.6 432.9,154.6 432.9,150 451.7,150 451.7,154.6 456.6,154.6 456.6,199.1 
				436.6,199.1 436.6,194.2 432.7,194.2 432.7,199.1 412.3,199.1 412.3,194.5 407.5,194.5 			"/>
			<polyline fill="#FFFFFF" points="436.6,180.2 432.7,180.2 432.7,175.2 427.7,175.2 427.7,170.4 422.5,170.4 422.5,189.1 
				412.4,189.1 412.4,154.8 422.5,154.8 422.5,159.9 427.6,159.9 427.6,165 432.7,165 432.7,170 436.6,170 436.6,154.8 446.6,154.8 
				446.6,189.1 436.6,189.1 			"/>
		</g>
		<g>
			<polygon points="496.6,150 530.8,150 530.8,155.1 535.9,155.1 535.9,160.4 540.8,160.4 540.8,175.3 535.8,175.3 535.8,180.5 
				540.8,180.5 540.8,194.2 535.8,194.2 535.8,199.3 501.8,199.3 501.8,194.4 496.6,194.4 496.6,189.3 491.6,189.3 491.6,155.1 
				496.6,155.1 			"/>
			<polygon fill="#FFFFFF" points="501.8,155.1 525.8,155.1 525.8,160.2 530.7,160.2 530.7,165.3 520.8,165.3 520.8,160.2 
				506.8,160.2 506.8,184.2 520.7,184.2 520.7,180.5 530.7,180.5 530.7,184.2 525.8,184.2 525.8,189.3 501.8,189.3 501.8,184.1 
				496.6,184.1 496.6,160.3 501.8,160.3 			"/>
		</g>
	</g>
</g>
</svg>
