<?xml version="1.0" encoding="utf-8"?>
<!-- Generator: Adobe Illustrator 17.1.0, SVG Export Plug-In . SVG Version: 6.00 Build 0)  -->
<!DOCTYPE svg PUBLIC "-//W3C//DTD SVG 1.1//EN" "http://www.w3.org/Graphics/SVG/1.1/DTD/svg11.dtd">
<svg version="1.1" xmlns="http://www.w3.org/2000/svg" xmlns:xlink="http://www.w3.org/1999/xlink" x="0px" y="0px"
	 viewBox="64.7 -7 518.5 1022" enable-background="new 64.7 -7 518.5 1022" xml:space="preserve">
<g id="Layer_1">
	<g id="Layer_8">
	</g>
	<g>
		<polygon fill="none" points="525.1,469.8 525.5,470.6 508.3,422.3 488.3,166.7 508,422.3 		"/>
		<path fill="none" stroke="#102030" stroke-width="14" stroke-miterlimit="10" d="M573.9,491.8l-43-77.2l-11.3-248.3l44.5-18.4
			c7.2-2.9,12-10,12-17.9V7.9c0-6.7-7.9-10.4-13-6l-12.8,10.9H97.5L84.8,1.9c-5.1-4.3-13-0.8-13,6v122.1c0,7.9,4.7,14.9,12,17.9
			l44.5,18.4l-11.1,248.3l-43,77.2c-1.6,2.8-2.3,5.9-2.3,9l57.8,507.1h239.9v-0.1h148.9l57.8-507.1
			C576.3,497.7,575.5,494.6,573.9,491.8z"/>
		<path fill="none" d="M517.7,514.1c4.9,2.3,8.1,7.5,7.6,13.3l-39.2,440.1l39.5-440C526.1,521.6,522.8,516.3,517.7,514.1z"/>
		<polygon fill="none" points="369.5,412.7 499.8,412.7 499.8,412.6 369.5,412.6 		"/>
		<path fill="none" d="M551.1,508l-9.8,168.4l0.3-3L551.1,508c0.2-2.8-0.1-5.6-0.9-8.2l-18.6-56.3l-0.8-1.9l19.2,58.2
			C550.7,502.4,551.1,505.2,551.1,508z"/>
		<path fill="none" d="M507.7,520.2c4.7,0,8.5,4,8,8.8L486,967.5l-0.4,6.4h0.1l0.4-6.5l29.8-438.5
			C516.2,524.2,512.4,520.2,507.7,520.2z"/>
		<path fill="none" d="M518.7,111.2L518.7,111.2c10,0,18.2-8,18.2-18.1l0,0C536.8,103.1,528.8,111.2,518.7,111.2z"/>
		<path fill="none" d="M560,125.7l5.3-34.3v-0.8l-5.5,35c-0.7,3.8-2.5,7.2-5.3,9.7l-17.8,12.9l0.9-0.4l17.1-12.4
			C557.6,132.8,559.4,129.5,560,125.7z"/>
		<path fill="none" d="M429.7,197.1h-60.2h-0.4v0.1h-53.3h-97.5c-15.7,0-28.5,12.7-28.5,28.5v133.5c0,15.7,12.7,28.5,28.5,28.5h97.5
			v0.1h113.9c15.8-0.1,28.6-12.9,28.6-28.8V225.8c0-7.9-3.2-15-8.4-20.3C444.7,200.4,437.6,197.1,429.7,197.1z"/>
		<path fill="none" d="M520.8,31.4c3.6,0.3,6.8,1.8,9.4,3.9C527.4,33.2,524.2,31.8,520.8,31.4z"/>
		<path fill="#F2EACC" d="M100.6,122.7h215.1v0.1h231.4c4.7,0,8.5-3.8,8.5-8.5V28.2c0-4.7-3.8-8.5-8.5-8.5H369.5h-53.7H100.7
			c-4.7,0-8.5,3.8-8.5,8.5v86C92.3,118.9,95.9,122.7,100.6,122.7z M111,49.4c0-10,8.1-18.1,18.1-18.1h186.7h53.7h149.3
			c0.7,0,1.2,0,1.9,0.1c3.6,0.3,6.8,1.8,9.4,3.9c0.1,0.1,0.1,0.1,0.2,0.1c0.2,0.2,0.6,0.4,0.8,0.7c0.1,0.1,0.3,0.3,0.6,0.4
			c0.1,0.1,0.3,0.3,0.4,0.4c0.2,0.2,0.4,0.6,0.8,0.8c0,0.1,0.1,0.1,0.1,0.2c2.1,2.7,3.5,5.9,3.9,9.5c0.1,0.6,0.1,1.2,0.1,1.9v43.8
			l0,0c0,10-8.1,18.1-18.1,18.1h-0.1H369.4h-53.7H129c-10,0-18.1-8.1-18.1-18.1L111,49.4L111,49.4z"/>
		<path fill="#F2EACC" d="M87.9,125.6l-5.6-34.9v33.2c0,5.7,3,10.9,7.9,13.8l20.8,10.5l-17.8-12.9C90.4,132.8,88.7,129.4,87.9,125.6
			z"/>
		<path fill="#F2EACC" d="M117.1,441.6l-24.6,54.9c-1.6,3.5-2.2,7.4-1.8,11.1l16,168.7l-9.8-168.4c-0.1-2.8,0.2-5.6,1.1-8.2
			L117.1,441.6z"/>
		<path fill="#FFFFFF" d="M369.5,412.6v0.1V412.6z"/>
		<path fill="#19263A" d="M129,111.2h186.7h53.7h149.2c10,0,18.2-8.1,18.2-18.1V49.4c0-0.7,0-1.2-0.1-1.9c-0.3-3.6-1.8-6.8-3.9-9.5
			c0-0.1-0.1-0.1-0.1-0.2c-0.2-0.3-0.4-0.6-0.8-0.8c-0.1-0.1-0.3-0.3-0.4-0.4c-0.1-0.1-0.3-0.3-0.6-0.4c-0.2-0.2-0.6-0.4-0.8-0.7
			c-0.1-0.1-0.1-0.1-0.2-0.1c-2.7-2.1-5.9-3.5-9.4-3.9c-0.6-0.1-1.2-0.1-1.9-0.1H369.3h-53.7H129c-9.9,0-18.1,8-18.1,18.1v43.8
			C111,103.1,119,111.2,129,111.2z"/>
		<path fill="#19263A" d="M576.1,129.9V7.9c0-6.7-7.9-10.4-13-6l-12.8,10.9H369.5h-53.7H97.5L84.8,1.9c-5.1-4.3-13-0.8-13,6v122.1
			c0,7.9,4.7,14.9,12,17.9l44.5,18.4l-11.1,248.3l-43,77.2c-1.6,2.8-2.3,5.9-2.3,9l57.8,507.1h239.9v-0.1h148.9l57.8-507.1
			c0-3.1-0.8-6.2-2.3-9l-43-77.2l-11.3-248.3l44.5-18.4C571.3,145,576.1,137.9,576.1,129.9z M106.7,676.5l-16-168.7
			c-1.1-3.3-0.1-7.4,1.8-11.1l24.6-54.9L98,499.8c-0.9,2.7-1.2,5.5-1.1,8.2L106.7,676.5z M92.3,28.2c0-4.7,3.8-8.5,8.5-8.5h215.1
			h53.7h177.6c4.7,0,8.5,3.8,8.5,8.5v86.1c0,4.7-3.8,8.5-8.5,8.5H315.8v-0.1H100.7c-4.7,0-8.5-3.8-8.5-8.5L92.3,28.2L92.3,28.2z
			 M90.4,137.7c-4.9-2.9-7.9-8.1-7.9-13.8V90.7l5.6,34.9c0.7,3.8,2.5,7.2,5.3,9.7l17.8,12.9L90.4,137.7z M531.5,443.4l-0.6-1.9
			l24.6,54.9c1.6,3.5,2.1,7.4,1.8,11.1l-16,168.7l0.2-3l-0.3,3L551,508c0.1-2.8-0.2-5.6-1.1-8.2l-19.2-58.2L531.5,443.4z
			 M525.5,527.5l-39.5,440l-0.4,6.5h-0.1v0.1H315.8l0,0H162.2l-0.4-6.6l-39.2-440.1c-0.7-7.8,5.5-14.5,13.3-14.5h179.9h53.9h142.4
			c2,0,3.9,0.4,5.7,1.2C522.8,516.3,526.1,521.6,525.5,527.5z M508.3,422.3l17.3,48.4l-0.4-0.8l0.3,0.8l-22.7-45.5H369.5h-53.7
			H145.2l-22.6,45.5l17.3-48.4l19.8-255.5l-55.8-38.1l60.6,32.3l151.3-0.1v0.1h167.7l60.6-32.3l-55.8,38.1L508.3,422.3z
			 M557.8,137.9l-20.8,10.5l0.8-0.6l-0.9,0.4l17.8-12.9c2.9-2.5,4.7-5.9,5.3-9.7l5.5-35v0.8l0.1-0.7h0.1V124
			C565.6,129.7,562.7,135,557.8,137.9z"/>
		<path fill="#F2EACC" d="M565.6,90.7L565.6,90.7l-0.2,0.7l-5.3,34.3c-0.6,3.8-2.5,7.1-5.3,9.7l-17.1,12.4l-0.8,0.6l20.8-10.5
			c4.9-2.9,7.9-8.1,7.9-13.8V90.7L565.6,90.7z"/>
		<path fill="#F2EACC" d="M551.1,508l-9.6,165.4l-0.2,3l16-168.7c0.3-3.8-0.2-7.7-1.8-11.1l-24.6-54.9l0.6,1.9l18.6,56.3
			C551,502.4,551.3,505.2,551.1,508z"/>
		<g>
			<path fill="#FCFFCF" d="M240.8,82c0-0.1,0-0.2,0-0.3h0c0,2.5-1.9,9.3-8.7,9.4c-0.1,0-0.4,0-0.3,0c8.1-0.2,9,6.2,9.1,8.5h0
				c0.2-4.8,3.9-8.8,8.4-8.6C244.4,90.7,240.8,87,240.8,82z"/>
		</g>
	</g>
	<path fill="#F2EACC" d="M483.5,160.9H315.8v-0.1l-151.3,0.1l-60.6-32.3l55.8,38.1l-19.8,255.5l-17.3,48.4l22.6-45.5h170.6h53.7
		h133.2l22.7,45.5l-0.3-0.8l-16.9-47.6l-19.8-255.5l55.8-38.1L483.5,160.9z M499.8,412.6L499.8,412.6L499.8,412.6l-130.3,0.1h-53.7
		H148.1l18.6-236.8h149H369h112.1L499.8,412.6z"/>
	<path fill="#F2EACC" d="M517.7,514.1c-1.7-0.8-3.7-1.2-5.7-1.2H369.6h-53.8h-180c-7.8,0-13.9,6.7-13.3,14.5l39.2,440.1L132.2,529
		c-0.3-4.7,3.5-8.7,8.1-8.7h175.5v-0.1h191.9c4.7,0,8.5,4,8.1,8.7l-29.8,438.5l39.2-440.1C525.8,521.6,522.5,516.4,517.7,514.1z"/>
	<path fill="#19263A" d="M369.1,175.9h-53.3H166.7l-18.6,236.8h167.6h53.7v-0.1l0,0h130.3l0,0l-18.6-236.7H369.1z M458.3,359.2
		c0,15.8-12.8,28.6-28.6,28.8H315.8v-0.1h-97.5c-15.8,0-28.5-12.8-28.5-28.5V225.8c0-15.8,12.8-28.5,28.5-28.5h97.5h53.3v-0.1h0.4
		h60.2c7.9,0,15,3.2,20.3,8.4s8.4,12.3,8.4,20.3V359.2z"/>
	<path fill="#19263A" d="M507.7,520.2H315.8v0.1H140.2c-4.7,0-8.5,4-8.1,8.7l29.8,438.4l0.4,6.6h153.5l0,0h169.8v-0.1l0.4-6.4
		L515.7,529C516.2,524.2,512.4,520.2,507.7,520.2z"/>
	<path fill="#FCFFCF" d="M126.3,50.3c0-0.1,0-0.2,0-0.3h0c0,2.5-1.9,9.3-8.7,9.4c-0.1,0-0.4,0-0.3,0c8.1-0.2,9,6.2,9.1,8.5h0
		c0.2-4.8,3.9-8.8,8.4-8.6C129.9,59,126.3,55.2,126.3,50.3z"/>
	<path fill="#FCFFCF" d="M135.1,37.4c0-0.1,0-0.2,0-0.3h0c0,2.5-1.9,9.3-8.7,9.4c-0.1,0-0.4,0-0.3,0c8.1-0.2,9,6.2,9.1,8.5h0
		c0.2-4.8,3.9-8.8,8.4-8.6C138.7,46.1,135.1,42.3,135.1,37.4z"/>
	<path fill="#FCFFCF" d="M498,82.1c0-0.1,0-0.2,0-0.3h0c0,2.5-1.9,9.3-8.7,9.4c-0.1,0-0.4,0-0.3,0c8.1-0.2,9,6.2,9.1,8.5h0
		c0.2-4.8,3.9-8.8,8.4-8.6C501.6,90.9,498,87.1,498,82.1z"/>
	<path fill="#FCFFCF" d="M510.2,86.8c0-0.1,0-0.2,0-0.3h0c0,2.5-1.9,9.3-8.7,9.4c-0.1,0-0.4,0-0.3,0c8.1-0.2,9,6.2,9.1,8.5h0
		c0.2-4.8,3.9-8.8,8.4-8.6C513.8,95.6,510.2,91.8,510.2,86.8z"/>
	<path fill="#FCFFCF" d="M516.1,42.5c0-0.1,0-0.2,0-0.3h0c0,2.5-1.9,9.3-8.7,9.4c-0.1,0-0.4,0-0.3,0c8.1-0.2,9,6.2,9.1,8.5h0
		c0.2-4.8,3.9-8.8,8.4-8.6C519.7,51.3,516.1,47.5,516.1,42.5z"/>
</g>
<g id="Layer_2">
	<g>
		<polygon fill="#7F1C32" points="130.9,51.2 158.5,51.2 158.5,54.9 162.6,54.9 162.6,58.6 166.1,58.6 166.1,83.1 162.7,83.1 
			162.7,86.4 134.5,86.4 134.5,83 130.9,83 		"/>
		<path fill="#FFE027" d="M159.1,65.7v-7.2h-3.6v-3.7h-20.8v24.4h20.8v-3.6h3.6v-6.5h-3.6v-3.5H159.1z M151.9,75.6H142v-6.2h9.9
			V75.6z M151.9,65.7H142v-7.2h9.9V65.7z"/>
	</g>
	<g>
		<polygon fill="#7F1C32" points="209.8,51.4 224.2,51.4 224.2,54.7 228.1,54.7 228.1,51.4 241.5,51.4 241.5,54.7 244.9,54.7 
			244.9,86.4 230.7,86.4 230.7,82.9 227.9,82.9 227.9,86.4 213.3,86.4 213.3,83.2 209.8,83.2 		"/>
		<polyline fill="#FFE027" points="230.7,72.9 227.9,72.9 227.9,69.4 224.3,69.4 224.3,65.9 220.6,65.9 220.6,79.3 213.4,79.3 
			213.4,54.8 220.6,54.8 220.6,58.4 224.2,58.4 224.2,62.1 227.9,62.1 227.9,65.7 230.7,65.7 230.7,54.8 237.8,54.8 237.8,79.3 
			230.7,79.3 		"/>
	</g>
	<g>
		<polygon fill="#7F1C32" points="271.3,51.2 295.7,51.2 295.7,54.8 299.4,54.8 299.4,58.6 302.9,58.6 302.9,69.3 299.3,69.3 
			299.3,73 302.9,73 302.9,82.8 299.3,82.8 299.3,86.4 275,86.4 275,82.9 271.3,82.9 271.3,79.2 267.7,79.2 267.7,54.8 271.3,54.8 
					"/>
		<polygon fill="#FFE027" points="275,54.8 292.2,54.8 292.2,58.5 295.7,58.5 295.7,62.1 288.6,62.1 288.6,58.4 278.6,58.4 
			278.6,75.6 288.5,75.6 288.5,73 295.7,73 295.7,75.6 292.2,75.6 292.2,79.2 275,79.2 275,75.6 271.3,75.6 271.3,58.6 275,58.6 		
			"/>
	</g>
	<g>
		<polygon fill="#7F1C32" points="310.4,51.4 334.7,51.4 334.7,54.8 338.5,54.8 338.5,58.8 341.9,58.8 341.9,82.8 338.3,82.8 
			338.3,86.4 314.1,86.4 314.1,82.8 310.4,82.8 310.4,79.3 306.7,79.3 306.7,54.8 310.4,54.8 		"/>
		<path fill="#FFE027" d="M331.1,58.4v-3.6h-17v3.6h-3.7V76h3.7v3.3h17v-3.5h3.7V58.4H331.1z M327.5,75.7h-9.8V58.4h9.8V75.7z"/>
	</g>
	<g>
		<polygon fill="#7F1C32" points="437.3,55 437.3,51.2 422.7,51.2 422.7,83.1 426.3,83.1 426.3,86.6 440.6,86.6 440.6,55 		"/>
		<rect x="426.1" y="54.7" fill="#FFE027" width="7.6" height="24.7"/>
	</g>
	<g>
		<polygon fill="#7F1C32" points="481.8,51.3 496.3,51.3 496.3,55.1 499.6,55.1 499.6,51.3 513.4,51.3 513.4,54.9 517.1,54.9 
			517.1,65.8 513.5,65.8 513.5,69.3 509.9,69.3 509.9,72.9 513.5,72.9 513.5,75.8 517.1,75.8 517.1,86.5 502.6,86.5 502.6,83 
			499.9,83 499.9,86.5 485.5,86.5 485.5,83.1 481.8,83.1 		"/>
		<polygon fill="#FFE027" points="485.5,54.9 492.7,54.9 492.7,65.8 496.3,65.8 496.3,62.3 499.9,62.3 499.9,58.6 502.6,58.6 
			502.6,54.9 509.9,54.9 509.9,58.6 506.3,58.6 506.3,62.2 502.7,62.2 502.7,65.8 500,65.8 500,69.3 502.7,69.3 502.7,73 506.3,73 
			506.3,75.7 509.9,75.7 509.9,79.4 502.6,79.4 502.6,75.8 500,75.8 500,72.9 496.4,72.9 496.4,69.2 492.8,69.2 492.8,79.4 
			485.5,79.4 		"/>
	</g>
	<g>
		<polygon fill="#7F1C32" points="345.6,51.3 360,51.3 360,54.6 363.8,54.6 363.8,51.3 377.2,51.3 377.2,54.6 380.7,54.6 
			380.7,86.3 366.4,86.3 366.4,82.8 363.7,82.8 363.7,86.3 349.1,86.3 349.1,83.1 345.6,83.1 		"/>
		<polyline fill="#FFE027" points="366.4,72.8 363.7,72.8 363.7,69.3 360.1,69.3 360.1,65.8 356.3,65.8 356.3,79.2 349.2,79.2 
			349.2,54.7 356.3,54.7 356.3,58.3 360,58.3 360,62 363.7,62 363.7,65.6 366.4,65.6 366.4,54.7 373.6,54.7 373.6,79.2 366.4,79.2 
					"/>
	</g>
	<g>
		<polygon fill="#7F1C32" points="383.6,51.3 398,51.3 398,54.6 401.9,54.6 401.9,51.3 415.3,51.3 415.3,54.6 418.7,54.6 
			418.7,86.3 404.5,86.3 404.5,82.8 401.7,82.8 401.7,86.3 387.1,86.3 387.1,83.1 383.6,83.1 		"/>
		<polyline fill="#FFE027" points="404.5,72.8 401.7,72.8 401.7,69.3 398.1,69.3 398.1,65.8 394.4,65.8 394.4,79.2 387.2,79.2 
			387.2,54.7 394.4,54.7 394.4,58.3 398,58.3 398,62 401.7,62 401.7,65.6 404.5,65.6 404.5,54.7 411.6,54.7 411.6,79.2 404.5,79.2 
					"/>
	</g>
	<g>
		<polygon fill="#7F1C32" points="447.4,51.3 471.8,51.3 471.8,54.9 475.4,54.9 475.4,58.7 479,58.7 479,69.4 475.4,69.4 
			475.4,73.1 479,73.1 479,82.9 475.4,82.9 475.4,86.5 451,86.5 451,83 447.4,83 447.4,79.3 443.8,79.3 443.8,54.9 447.4,54.9 		"/>
		<polygon fill="#FFE027" points="451.1,54.9 468.2,54.9 468.2,58.6 471.7,58.6 471.7,62.2 464.6,62.2 464.6,58.5 454.7,58.5 
			454.7,75.7 464.6,75.7 464.6,73.1 471.7,73.1 471.7,75.7 468.2,75.7 468.2,79.3 451.1,79.3 451.1,75.7 447.3,75.7 447.3,58.7 
			451.1,58.7 		"/>
	</g>
	<g>
		<polygon fill="#7F1C32" points="170.2,51.2 201.8,51.2 201.8,54.5 205.4,54.5 205.4,65.5 201.8,65.5 201.8,75.5 205.4,75.5 
			205.4,86.4 173.8,86.4 173.8,83 170.2,83 		"/>
		<polygon fill="#FFE027" points="173.8,54.7 198.2,54.7 198.2,58.8 180.9,58.8 180.9,65.4 194.5,65.4 194.5,69.3 180.9,69.3 
			180.9,75.4 198.2,75.4 198.2,79.4 173.8,79.4 		"/>
	</g>
</g>
</svg>
